<svg xmlns="http://www.w3.org/2000/svg" width="58" height="70" viewBox="0 0 58 70">
    <g fill="#019846">
        <path d="M49 18.285c-.629.286-1.31.432-2 .43M20 26.07c-.629.24-1.303.52-2 .86M8.545 42c-.06-.664-.09-1.332-.09-2M34.595 52c-.002.676-.066 1.35-.19 2M22.595 54c-.124-.65-.188-1.324-.19-2M12.575 22c-.097.656-.147 1.327-.15 2M6.52 25.045c-.029.302-.042.606-.04.91"/>
        <path d="M32.786 24.157c-.12.055-.236.12-.345.194-.58-.1-1.162-.22-1.772-.35-3.464-1.027-7.179-.858-10.533.477-1.453-1.352-2.448-3.113-2.848-5.044-.18-.872-.846-1.567-1.717-1.795-.852-.226-1.76.045-2.341.7-.483.533-.913 1.11-1.283 1.723-.198-.457-.36-.929-.483-1.411-.227-.92-.986-1.62-1.932-1.78-.909-.16-1.825.24-2.318 1.01-.743 1.142-1.322 2.38-1.722 3.678-.42-.732-1.22-1.17-2.071-1.134-.942.038-1.772.622-2.114 1.49-.776 1.937-1.18 4-1.194 6.082-.133 5.613 2.603 10.915 7.28 14.107 1.044 7.213 6.692 12.366 14.539 13.06 1.205 2.47 3.052 4.58 5.352 6.114v5.396c-1.001.266-1.97.638-2.892 1.11-.377.187-.624.56-.648.976-.025.416.178.814.531 1.043.353.229.803.254 1.18.067.932-.524 1.952-.878 3.01-1.043 1.89.107 3.754.48 5.537 1.107.4.131.842.042 1.158-.235.316-.277.459-.7.374-1.108-.085-.41-.385-.742-.786-.874-1.655-.555-3.365-.936-5.1-1.136v-5.303c2.352-1.566 4.225-3.74 5.412-6.286 9.408-2.864 15.832-11.44 15.852-21.162 0-.4-.018-.817-.043-1.246.253-.194.462-.438.613-.716.308-.554.372-1.208.178-1.81-1.101-3.64-1.732-7.402-1.876-11.198 1.048-.613 1.916-1.484 2.52-2.528h3.333c.82-.001 1.58-.421 2.01-1.11.43-.69.467-1.55.098-2.273l-.202-.4c-.99-1.957-3.01-3.2-5.225-3.217-.282-.489-.623-.943-1.014-1.352 1.178-.708 1.918-1.953 1.97-3.314-.002-1.07-.5-2.082-1.352-2.746-.851-.663-1.963-.906-3.019-.659C48.233.462 47.237 0 46.186 0c-1.05 0-2.046.462-2.717 1.261-1.055-.247-2.167-.004-3.019.66-.851.663-1.35 1.674-1.352 2.745-.01 1.395.646 2.713 1.772 3.556-1.14 1.272-1.77 2.911-1.772 4.61 0 .086-.072 8.682-6.312 11.325zm2.746 28.23c-.048-.623-.59-1.097-1.223-1.068-.633.03-1.128.55-1.118 1.176 0 3.01-3.32 5.731-4.725 6.752-1.734-1.244-4.726-3.966-4.726-6.752 0-.644-.529-1.167-1.181-1.167s-1.181.523-1.181 1.167c0 .096.016.188.02.282-7.138-.921-11.834-6.041-11.834-13.114 0-.644-.529-1.167-1.181-1.167-.425.005-.813.236-1.015.605-3.235-2.79-5.031-6.865-4.892-11.104.02-1.801.358-3.585 1-5.271.39.785.858 1.53 1.394 2.227-.011.233-.031.466-.031.711 0 .644.528 1.167 1.18 1.167.653 0 1.182-.523 1.182-1.167-.002-.322.012-.644.044-.965.174-1.961.835-3.85 1.926-5.499.336 1.337.908 2.606 1.689 3.747-.072.4-.11.806-.115 1.212 0 .645.53 1.167 1.182 1.167.652 0 1.181-.522 1.181-1.167.085-1.595.747-3.106 1.867-4.259.435 2.088 1.432 4.022 2.885 5.6-.199.101-.393.194-.591.305-.378.197-.618.58-.63 1.001-.01.422.209.816.576 1.032.366.217.822.22 1.193.011.7-.38 1.36-.7 1.99-.966h.007c3.066-1.372 6.534-1.59 9.75-.612.4.088.806.178 1.217.261.036.39.174.764.4 1.086 1.76 2.28 4.154 4.005 6.891 4.961 1.952.756 4.031 1.137 6.127 1.123 1.26-.004 2.515-.128 3.75-.37 0 .166.014.336.014.497-.016 8.256-5.2 15.642-13.022 18.555v.004zm12.587-35.302l-.054.025c-.592.259-1.232.391-1.879.388-.652 0-1.181.523-1.181 1.167s.529 1.166 1.181 1.166c.43 0 .857-.04 1.279-.116.195 3.74.848 7.444 1.944 11.03-3.243.928-6.702.811-9.873-.335-2.301-.786-4.322-2.215-5.818-4.112 7.654-3.24 7.743-13.05 7.743-13.466-.002-1.403.638-2.731 1.74-3.616.838-.682 1.89-1.053 2.976-1.05.34 0 .68.035 1.014.103 1.994.428 3.485 2.072 3.696 4.077.21 2.004-.905 3.916-2.768 4.74zm7.313-3.485l.205.399h-2.48c.125-.731.133-1.477.024-2.211.978.259 1.797.918 2.25 1.812zM42.642 3.5c.233-.003.461.064.655.192.304.206.688.26 1.039.145.35-.114.626-.384.746-.728.162-.466.606-.778 1.104-.778.499 0 .942.312 1.105.778.12.344.396.614.746.728.35.115.735.061 1.039-.145.193-.128.422-.195.654-.192.653 0 1.182.522 1.182 1.166 0 .769-.827 1.419-1.72 1.835-.487-.233-1.001-.407-1.53-.52-1.655-.337-3.377-.084-4.861.714-.804-.367-1.324-1.155-1.34-2.029 0-.644.529-1.166 1.181-1.166z"/>
        <path d="M41.48 38.537c-.629-.169-1.277.196-1.45.817-.613 2.245-2.314 4.043-4.54 4.801-13.604 4.595-19.408-3.786-21.279-7.603l15.143-5.122c.404-.131.704-.467.788-.879.083-.411-.064-.835-.385-1.11-.322-.275-.768-.358-1.168-.218l-15.135 5.121c-.641.213-1.16.688-1.42 1.305-.261.616-.24 1.314.057 1.914 1.344 2.754 5.939 10.266 15.97 10.266 2.798-.038 5.569-.532 8.202-1.463 2.967-1.01 5.235-3.406 6.053-6.398.082-.299.04-.618-.117-.887-.157-.268-.416-.464-.72-.544z"/>
        <path d="M23.125 39.677c-.573-.309-1.29-.1-1.603.465-.313.566-.102 1.275.471 1.583 1.86.978 3.94 1.475 6.048 1.444 2.278-.041 4.533-.452 6.677-1.215.4-.135.695-.47.777-.879.081-.409-.064-.83-.382-1.104-.318-.274-.76-.36-1.16-.225-4.342 1.467-8.01 1.447-10.828-.07z"/>
        <ellipse cx="46.186" cy="11.666" rx="1.181" ry="1.167"/>
    </g>
</svg>