<svg xmlns="http://www.w3.org/2000/svg" width="50" height="52" viewBox="0 0 50 52">
    <g fill="#019846">
        <path d="M10.04 52c-2.368 0-4.453-.798-5.983-2.314-.922-.914-3.725-3.713-3.754-3.741-.382-.382-.406-.99-.055-1.4.013-.016 1.329-1.568 1.835-3.016l.153-.442c.817-2.357 1.661-4.794 3.885-7 1.328-1.316 2.822-2.365 4.443-3.12 2.066-.96 3.738-2.618 4.707-4.666.76-1.607 1.819-3.09 3.146-4.406 1.328-1.316 2.822-2.365 4.443-3.12 2.066-.96 3.738-2.618 4.707-4.667.76-1.606 1.819-3.089 3.146-4.405 1.78-1.764 5.126-3.405 9.946-4.879 4.377-1.338 5.497-4.13 5.508-4.158.145-.376.497-.635.902-.664.405-.027.79.18.987.532.108.193 2.635 4.804 1.76 10.88-.618 4.29-2.955 9.381-5.436 11.841-1.327 1.316-2.822 2.366-4.442 3.12-2.066.961-3.738 2.619-4.707 4.667-.76 1.607-1.82 3.09-3.146 4.405-1.328 1.317-2.823 2.366-4.443 3.12-2.066.961-3.738 2.619-4.707 4.667-.76 1.607-1.82 3.09-3.147 4.406-2.337 2.317-5.23 3.824-8.143 4.243-.547.078-1.083.117-1.606.117zM2.43 45.13c.891.888 2.46 2.452 3.104 3.091 1.39 1.378 3.452 1.95 5.81 1.611 2.471-.354 4.945-1.653 6.966-3.657 1.156-1.146 2.075-2.432 2.732-3.82 1.177-2.486 3.205-4.497 5.711-5.663 1.401-.652 2.697-1.563 3.853-2.71 1.156-1.145 2.075-2.43 2.732-3.82 1.176-2.485 3.205-4.496 5.711-5.662 1.401-.652 2.697-1.564 3.853-2.71 2.128-2.11 4.301-6.895 4.845-10.668.478-3.324-.2-6.174-.798-7.883-1.001 1.188-2.757 2.673-5.676 3.565-4.428 1.354-7.57 2.863-9.084 4.365-1.155 1.145-2.075 2.43-2.732 3.82-1.176 2.485-3.204 4.496-5.71 5.663-1.401.651-2.698 1.563-3.853 2.709-1.156 1.146-2.075 2.431-2.733 3.82-1.176 2.485-3.204 4.496-5.71 5.663-1.401.651-2.698 1.563-3.853 2.709-1.883 1.866-2.613 3.975-3.387 6.207l-.155.447c-.39 1.116-1.111 2.22-1.626 2.922z"/>
        <path d="M23.769 35c-1.356 0-2.549-.461-3.428-1.34-1.096-1.096-1.542-2.678-1.257-4.454.266-1.655 1.148-3.303 2.484-4.639 1.336-1.336 2.983-2.217 4.638-2.483 1.776-.285 3.358.16 4.454 1.256 1.095 1.096 1.541 2.678 1.256 4.454-.266 1.655-1.148 3.302-2.484 4.638-1.336 1.336-2.983 2.218-4.638 2.484-.35.056-.693.084-1.025.084zm3.458-10.948c-1.345 0-2.944.692-4.213 1.962-1.034 1.034-1.713 2.282-1.91 3.516-.18 1.111.063 2.064.682 2.684.62.619 1.573.862 2.684.683 1.234-.198 2.482-.876 3.516-1.91 2.013-2.014 2.575-4.853 1.228-6.2-.498-.498-1.2-.735-1.987-.735zM11.769 47c-1.356 0-2.549-.461-3.428-1.34-1.096-1.096-1.542-2.678-1.257-4.454.266-1.655 1.148-3.302 2.484-4.638 1.336-1.336 2.983-2.218 4.638-2.484 1.776-.285 3.358.161 4.453 1.257 1.096 1.095 1.542 2.677 1.257 4.453-.266 1.655-1.148 3.302-2.484 4.638-1.336 1.336-2.983 2.218-4.638 2.484-.35.056-.693.084-1.025.084zm3.452-10.954c-.222 0-.453.019-.691.057-1.234.198-2.482.877-3.517 1.91-2.012 2.014-2.574 4.853-1.227 6.2 1.348 1.348 4.187.787 6.2-1.226 1.034-1.034 1.713-2.283 1.91-3.517.18-1.111-.063-2.064-.683-2.683-.486-.487-1.179-.74-1.992-.74zM35.769 23c-1.356 0-2.549-.461-3.428-1.34-1.096-1.096-1.542-2.678-1.257-4.454.266-1.655 1.148-3.302 2.484-4.638 1.336-1.336 2.983-2.218 4.638-2.484 1.776-.285 3.358.161 4.453 1.257 1.096 1.095 1.542 2.677 1.257 4.453-.266 1.655-1.148 3.302-2.484 4.638-1.336 1.336-2.983 2.218-4.638 2.484-.35.056-.693.084-1.025.084zm3.452-10.954c-.222 0-.453.019-.691.057-1.234.198-2.482.877-3.516 1.91-2.013 2.014-2.575 4.853-1.227 6.2 1.347 1.348 4.187.787 6.2-1.227 1.034-1.034 1.712-2.282 1.91-3.516.179-1.111-.064-2.064-.683-2.683-.487-.487-1.18-.74-1.993-.74z"/>
        <path d="M11.139 44h-.033c-.618-.006-1.113-.437-1.106-.963.007-.527.515-.948 1.131-.943h.01c.414 0 1.193-.266 2.012-.864.469-.343 1.175-.297 1.577.102.403.4.349 1.001-.12 1.344-1.153.843-2.416 1.324-3.471 1.324zM15.93 41c-.135 0-.27-.027-.4-.083-.464-.201-.66-.708-.44-1.13.041-.078.076-.155.106-.228.175-.44.708-.668 1.191-.508.483.16.732.647.557 1.088-.05.124-.108.25-.174.377-.16.305-.493.484-.84.484z"/>
    </g>
</svg>