<svg xmlns="http://www.w3.org/2000/svg" width="70" height="50" viewBox="0 0 70 50">
    <g fill="none">
        <path fill="#75462E" d="M63.048 19.872c-2.389-.305-4.167-2.42-4.12-4.897v-.878c.002-1.314-1.032-2.379-2.308-2.38h-2.227c-.626 0-1.134-.523-1.134-1.168 0-.644.508-1.167 1.134-1.167h2.225c2.529 0 4.579 2.11 4.579 4.715v.956c-.033 1.196.776 2.242 1.916 2.475 1.237.2 2.398-.67 2.592-1.945.018-.12.027-.242.027-.363v-4.67c0-.645.508-1.168 1.134-1.168.626 0 1.134.523 1.134 1.167v4.671c0 2.58-2.03 4.67-4.534 4.672-.14 0-.28-.007-.418-.02z" transform="translate(1)"/>
        <path fill="#019846" d="M9 7H11V9H9z" transform="translate(1)"/>
        <path fill="#019846" d="M60.067 1.322H23.802v.037l-2-.787c-2.02-.834-4.31-.602-6.13.62l-2.845-.97c-1.77-.498-3.665-.149-5.154.949C6.725.509 5.603.158 4.457.162h-3.32C.51.162.002.682.002 1.322c0 2.187.325 4.877 2.917 6.299l.34.162L.62 12.651c-1.29 2.317-.498 5.264 1.767 6.583.712.414 1.517.632 2.336.632h6.535c.34 0 .664.157.88.428l8.011 10.094c.165.207.254.465.254.73v17.723c0 .64.508 1.159 1.133 1.159h4.534c.54 0 1.005-.392 1.11-.934l3.014-15.531c.112-.534.574-.916 1.108-.916h24.896l2.656 2.716-2.17 13.315c-.103.631.314 1.228.93 1.334.061.01.125.016.187.016h4.533c.498 0 .938-.332 1.084-.818l4.533-15.068c.076-.253.066-.526-.03-.771l-1.595-4.073c-.326-.829-.326-1.754 0-2.583l1.594-4.072c.053-.137.081-.284.081-.431V9.434c-.006-4.478-3.554-8.108-7.933-8.112zM3.94 5.55c-1.055-.638-1.68-1.819-1.625-3.07h2.142c.531-.003 1.056.119 1.534.356-.057.083-.127.155-.18.24l-1.45 2.675-.42-.201zm61.793 7.36v2.319c0 1.28-1.014 2.318-2.267 2.318-1.252 0-2.266-1.037-2.266-2.318v-1.16c0-2.56-2.03-4.635-4.533-4.635h-3.4v2.318h3.4c1.252 0 2.266 1.037 2.266 2.318v1.159c0 2.56 2.03 4.636 4.533 4.636.798-.005 1.581-.227 2.267-.644v2.738l-1.513 3.868c-.542 1.381-.542 2.922 0 4.303l1.445 3.693-4.168 13.858h-2.359l2.04-12.558c.06-.37-.057-.745-.316-1.01l-5.936-6.077c-1.066-1.084-1.664-2.56-1.659-4.097v-1.756H51v1.756c-.005 2.152.831 4.219 2.324 5.736l.606.621H31.3c-1.606.008-2.991 1.159-3.327 2.767l-2.835 14.618h-2.47V31.12c0-.798-.27-1.57-.76-2.19l-8.012-10.096c-.644-.815-1.615-1.288-2.64-1.285H4.722c-1.354 0-2.452-1.121-2.452-2.506 0-.44.112-.872.326-1.252L7.76 4.262c.95-1.462 2.67-2.188 4.352-1.84l3.4 1.158c.384.128.806.04 1.11-.231 1.242-.992 2.91-1.227 4.367-.614l1.992.785c-.945 1.924-1.937 2.331-2.654 2.434h-2.19v2.318h2.266c.048 0 .095-.002.142-.01 2.125-.27 3.711-1.794 4.86-4.622h34.663c3.128.003 5.663 2.596 5.666 5.795v3.477z" transform="translate(1)"/>
    </g>
</svg>