<?xml version="1.0" encoding="UTF-8"?>
<svg width="68px" height="52px" viewBox="0 0 68 52" version="1.1" xmlns="http://www.w3.org/2000/svg" xmlns:xlink="http://www.w3.org/1999/xlink">
    <title>XMLID_95_</title>
    <g id="Páginas" stroke="none" stroke-width="1" fill="none" fill-rule="evenodd">
        <g id="1_INICIO_320" transform="translate(-55.000000, -1713.000000)" fill="#019846" fill-rule="nonzero">
            <g id="Group-10" transform="translate(15.000000, 1293.000000)">
                <g id="Group-3-Copy-2" transform="translate(0.000000, 370.000000)">
                    <g id="animales" transform="translate(40.000000, 50.000000)">
                        <path d="M66.6720114,15.8505457 L63.8455034,15.8505457 C62.4428744,15.8505457 61.1486201,15.1289079 60.3836222,13.9203691 C58.8427358,11.486266 56.7485539,9.46573382 54.2850216,8.02580974 L55.8984234,1.94799221 C56.0883448,1.23278925 55.6678616,0.497745605 54.9593088,0.306041719 C50.5824847,-0.877696262 46.0460205,1.47342454 44.3749781,5.61583718 L39.3720776,5.61583718 C38.6385562,5.61583718 38.0439562,6.21601781 38.0439562,6.9564238 C38.0439562,7.69682979 38.6385562,8.29701041 39.3720776,8.29701041 L45.3227256,8.29701041 C45.9190521,8.29701041 46.4423319,7.89577284 46.6022377,7.31596913 C47.3991106,4.42606656 50.0922751,2.55125618 52.9519861,2.68786196 L51.4474902,8.35532593 C51.2842641,8.97052113 51.5722008,9.61668388 52.1365196,9.90142447 C54.5882317,11.1383837 56.6659448,13.0272703 58.1452064,15.3639128 C59.4008124,17.3474447 61.5317832,18.5317189 63.8455034,18.5317189 L65.34389,18.5317189 L65.34389,24.1871176 L60.5751373,26.9270085 C60.2715288,27.1014189 60.0482716,27.3895109 59.9537093,27.7289475 C58.3449559,33.4995025 53.5116565,37.8018472 47.6401646,38.6895836 C47.0646896,38.7765877 46.6123314,39.2315828 46.5241442,39.8121908 L45.6764043,45.3911761 C45.6180998,45.7741817 45.7270057,46.1638902 45.9747004,46.4597577 C46.6698391,47.289983 47.1451737,48.275046 47.3655091,49.3190949 L42.4588974,49.3190949 L42.4588974,35.7121407 C42.4588974,34.9717348 41.8642974,34.3715541 41.130776,34.3715541 C40.3972545,34.3715541 39.8026546,34.9717348 39.8026546,35.7121407 L39.8026546,38.8625193 L28.5991537,38.8625193 C29.6220728,37.602636 30.2371259,35.9928596 30.2371259,34.2405788 C30.2371259,33.5001728 29.6425259,32.8999922 28.9090045,32.8999922 C28.175483,32.8999922 27.5808831,33.5001728 27.5808831,34.2405788 C27.5808831,36.789034 25.5268105,38.8625193 23.0019189,38.8625193 C22.3827487,38.8625193 21.8459221,39.2943222 21.707399,39.9034848 L20.4823398,45.2947879 C20.3889729,45.7059458 20.4926992,46.1376147 20.7624406,46.4597577 C21.4575794,47.289983 21.932914,48.275046 22.1532494,49.3190949 L17.2466377,49.3190949 L17.2465049,46.4743701 C17.2465049,41.9427852 15.4640331,37.6248897 12.2274013,34.3161879 C9.41178392,31.4379484 7.86120219,27.625052 7.86120219,23.5798319 C7.86120219,15.1529044 14.653215,8.29714447 23.0017861,8.29714447 L27.4187194,8.29714447 C28.1522409,8.29714447 28.7468408,7.69696384 28.7468408,6.95655786 C28.7468408,6.21615187 28.1522409,5.61597124 27.4187194,5.61597124 L23.0017861,5.61597124 C16.0161332,5.61597124 9.95870431,9.70033648 7.0473294,15.6269358 C6.41461237,16.0792498 5.66435659,16.2862363 4.87531967,16.2240331 C4.2334386,16.173359 3.64999487,15.8736038 3.2324335,15.3798657 C2.81487213,14.8861277 2.61299768,14.2575266 2.66413035,13.6096211 C2.73704422,12.6855548 3.54135454,11.9919352 4.45696143,12.0647291 C5.18809226,12.1221062 5.82731708,11.570857 5.88469193,10.83273 C5.94193396,10.094603 5.39541201,9.44937867 4.66414836,9.39159938 C2.29079543,9.20472161 0.205379211,11.0008396 0.0163875359,13.3966019 C-0.0911902972,14.7590401 0.333542926,16.0815288 1.21222804,17.1204834 C2.09091316,18.159438 3.31823014,18.7903181 4.66826554,18.8968947 C4.8253823,18.9092281 4.98210063,18.9153948 5.13868614,18.9153948 C5.36898239,18.9153948 5.59821614,18.9018549 5.8253249,18.8755794 C5.42170881,20.3755618 5.2049594,21.9523597 5.2049594,23.5795638 C5.2049594,28.3344904 7.0276732,32.8164737 10.3373517,36.1997121 C13.0799224,39.0034149 14.5903949,42.6522236 14.5903949,46.474236 L14.5905277,49.3873307 C14.5905277,50.8280592 15.7517042,52 17.1789035,52 L29.6196822,52 C30.3532037,52 30.9478036,51.3998194 30.9478036,50.6594134 C30.9478036,48.7063127 30.3219928,46.798658 29.1748944,45.2225303 L29.7340335,41.5434244 L39.8025218,41.5434244 L39.8025218,49.3873307 C39.8025218,50.8280592 40.9636983,52 42.3908976,52 L54.8290201,52 C55.5625415,52 56.1571415,51.3998194 56.1571415,50.6594134 C56.1571415,48.7005482 55.5278776,46.7876652 54.3744041,45.2089904 C54.5525052,43.8540595 55.012168,40.3768459 55.282972,38.5012312 C58.5841505,36.2674117 61.1178077,32.9416844 62.3520309,28.9909757 L67.3289002,26.1315044 C67.7438054,25.8931481 68,25.4483415 68,24.9664006 L68,17.1909983 C68,16.4507263 67.4055328,15.8505457 66.6720114,15.8505457 L66.6720114,15.8505457 Z M24.8499999,49.3189608 C24.6351098,47.8641562 24.0751738,46.4734317 23.2128246,45.272132 L24.0600332,41.5435585 L27.0469783,41.5435585 L26.4623392,45.391042 C26.4040347,45.7740476 26.5129407,46.1637562 26.7607681,46.4596236 C27.4559068,47.2898489 27.9311087,48.275046 28.1515768,49.3189608 L24.8499999,49.3189608 Z M52.3778392,40.0963952 C52.0548401,42.4578385 51.6896067,45.2518892 51.6678255,45.4190603 C51.6189507,45.7934861 51.7286535,46.1712635 51.970106,46.4596236 C52.6652447,47.2898489 53.1405794,48.274912 53.3609147,49.3189608 L50.061994,49.3189608 C49.844182,47.8441815 49.2717617,46.435225 48.3892251,45.2226644 L49.005739,41.1660493 C50.1740874,40.9216603 51.3023265,40.5609085 52.3778392,40.0963952 Z M52.9166887,17.8383179 C53.2650331,17.8383179 53.606755,17.9794592 53.8531126,18.2284538 C54.0994702,18.4761168 54.2411921,18.8183179 54.2411921,19.1698397 C54.2411921,19.5200299 54.0994702,19.8635625 53.8531126,20.1112255 C53.606755,20.3588886 53.2650331,20.5013614 52.9166887,20.5013614 C52.5670199,20.5013614 52.2266225,20.3588886 51.9802649,20.1112255 C51.7325828,19.8635625 51.5921854,19.5200299 51.5921854,19.1698397 C51.5921854,18.8183179 51.7325828,18.4761168 51.9802649,18.2284538 C52.2266225,17.9794592 52.5670199,17.8383179 52.9166887,17.8383179 Z M33.814702,6.2540788 C34.1630464,6.2540788 34.5047682,6.39522011 34.7511258,6.64421467 C34.9974834,6.89187772 35.1392053,7.23541033 35.1392053,7.58560054 C35.1392053,7.93579076 34.9974834,8.27932337 34.7511258,8.52698641 C34.5047682,8.77464946 34.1630464,8.91712228 33.814702,8.91712228 C33.4650331,8.91712228 33.1246358,8.77464946 32.8782781,8.52698641 C32.6319205,8.27932337 32.4901987,7.93579076 32.4901987,7.58560054 C32.4901987,7.2340788 32.6319205,6.89187772 32.8782781,6.64421467 C33.1246358,6.39522011 33.4650331,6.2540788 33.814702,6.2540788 Z" id="XMLID_95_"/>
                    </g>
                </g>
            </g>
        </g>
    </g>
</svg>