<?xml version="1.0" encoding="UTF-8"?>
<svg width="32px" height="32px" viewBox="0 0 32 32" version="1.1" xmlns="http://www.w3.org/2000/svg" xmlns:xlink="http://www.w3.org/1999/xlink">
    <title>4ADEBBEA-D850-4C19-AA33-5B1FADAB4069</title>
    <defs>
        <path d="M17,22 C17.5522847,22 18,22.4477153 18,23 C18,23.5522847 17.5522847,24 17,24 L16,24 C15.4477153,24 15,23.5522847 15,23 C15,22.4477153 15.4477153,22 16,22 L17,22 Z M17,15 C17.5522847,15 18,15.4477153 18,16 C18,16.5522847 17.5522847,17 17,17 L16,17 C15.4477153,17 15,16.5522847 15,16 C15,15.4477153 15.4477153,15 16,15 L17,15 Z M17,8 C17.5522847,8 18,8.44771525 18,9 C18,9.55228475 17.5522847,10 17,10 L16,10 C15.4477153,10 15,9.55228475 15,9 C15,8.44771525 15.4477153,8 16,8 L17,8 Z" id="path-1"></path>
    </defs>
    <g id="Páginas" stroke="none" stroke-width="1" fill="none" fill-rule="evenodd">
        <g id="2.2_Nuestra-Historia_320" transform="translate(-10.000000, -199.000000)">
            <g id="submenu" transform="translate(0.000000, 190.000000)">
                <g id="Group" transform="translate(10.000000, 9.000000)">
                    <g id="color/$secundary-copy-23" fill="#FFFFFF" fill-rule="nonzero">
                        <rect id="Rectangle" x="0" y="0" width="32" height="32" rx="16"></rect>
                    </g>
                    <mask id="mask-2" fill="white">
                        <use xlink:href="#path-1"></use>
                    </mask>
                    <use id="Combined-Shape" fill="#232323" fill-rule="nonzero" xlink:href="#path-1"></use>
                    <g id="🎨-color" mask="url(#mask-2)" fill="#019846" fill-rule="nonzero">
                        <rect id="Rectangle" x="0" y="0" width="32" height="32" rx="16"></rect>
                    </g>
                </g>
            </g>
        </g>
    </g>
</svg>