<svg xmlns="http://www.w3.org/2000/svg" xmlns:xlink="http://www.w3.org/1999/xlink" width="24" height="24" viewBox="0 0 24 24">
    <defs>
        <path id="ih58l8svea" d="M12 11.25c-.414 0-.75.336-.75.75v3c0 .414.336.75.75.75s.75-.336.75-.75v-3c0-.414-.336-.75-.75-.75zm.285-2.94c-.183-.075-.387-.075-.57 0-.092.036-.176.09-.248.157-.066.073-.119.157-.157.248-.042.089-.063.187-.06.285-.001.2.077.391.217.533.073.066.157.119.248.157.23.095.493.069.701-.07.208-.138.333-.37.334-.62-.003-.199-.08-.389-.217-.533-.072-.068-.156-.121-.248-.157zM12 4.5c-4.142 0-7.5 3.358-7.5 7.5 0 4.142 3.358 7.5 7.5 7.5 4.142 0 7.5-3.358 7.5-7.5 0-1.99-.79-3.897-2.197-5.303C15.897 5.29 13.99 4.5 12 4.5zM12 18c-3.314 0-6-2.686-6-6s2.686-6 6-6 6 2.686 6 6c0 1.591-.632 3.117-1.757 4.243C15.117 17.368 13.59 18 12 18z"/>
    </defs>
    <g fill="none" fill-rule="evenodd">
        <rect width="24" height="24" fill="#FFF" fill-rule="nonzero" rx="12"/>
        <mask id="s7j0923fob" fill="#fff">
            <use xlink:href="#ih58l8svea"/>
        </mask>
        <use fill="#232323" fill-rule="nonzero" xlink:href="#ih58l8svea"/>
        <g fill="#019846" fill-rule="nonzero" mask="url(#s7j0923fob)">
            <rect width="24" height="24" rx="12"/>
        </g>
    </g>
</svg>
