<svg xmlns="http://www.w3.org/2000/svg" width="58" height="63" viewBox="0 0 58 63">
    <g fill="#019846">
        <path d="M56.52 25.477l-1.53-2.245c-2.394-3.514-6.287-5.658-10.475-5.79L28.362 1.028C27.235-.12 25.56-.327 24.19.508c-1.363.833-1.967 2.428-1.504 3.972 1.213 4.037 3.385 7.648 6.297 10.558l-8.058-2.194c-1.539-.42-3.094.252-3.868 1.67-.771 1.414-.51 3.103.651 4.204 4.414 4.187 10.276 6.594 16.304 6.744-.198.815-.306 1.666-.306 2.542 0 .059.004.117.005.176H21.88c-2.583 0-5.065.572-7.377 1.7-.601.292-.855 1.026-.566 1.638.208.44.64.697 1.09.697.175 0 .353-.04.522-.121 1.983-.967 4.113-1.458 6.33-1.458h12.153c1.154 4.558 5.232 7.936 10.071 7.936h5.439c-.447 3.883-1.953 7.513-4.355 10.536v-1.254c0-.678-.541-1.228-1.208-1.228-.668 0-1.209.55-1.209 1.228v8.127c0 .678.541 1.228 1.209 1.228 1.99 0 3.673 1.36 4.199 3.213h-7.037l-2.854-11.493c-.163-.658-.82-1.056-1.467-.89-.647.166-1.04.833-.876 1.491l1.398 5.631c-1.15.502-2.341.893-3.562 1.17-.807-.677-1.769-1.169-2.823-1.41.123-.781.149-1.577.076-2.377-.439-4.771-4.348-8.508-8.9-8.508-2.536 0-4.922.954-6.719 2.689-1.83 1.767-2.84 4.149-2.84 6.705 0 1.597.393 3.1 1.084 4.42-3.88-2.681-6.432-7.204-6.432-12.32 0-2.195.458-4.307 1.362-6.28.281-.614.02-1.345-.585-1.631-.606-.287-1.324-.02-1.606.595-1.054 2.299-1.588 4.76-1.588 7.315 0 1.324.147 2.613.425 3.853C2.252 50.08.021 52.8.021 56.042c0 3.77 3.017 6.836 6.726 6.836 2.24 0 4.323-1.158 5.56-2.992 2.727 1.884 6.017 2.988 9.555 2.992h13.182c.667 0 1.208-.55 1.208-1.228 0-1.161-.285-2.256-.786-3.217.84-.239 1.666-.528 2.475-.864l1.088 4.381c.135.546.618.928 1.172.928h9.356c.667 0 1.209-.55 1.209-1.228 0-3.384-2.41-6.207-5.578-6.787v-2.117c3.93-3.875 6.324-8.973 6.816-14.49 3.444-.992 5.976-4.214 5.976-8.028 0-1.706-.505-3.348-1.46-4.75zM6.747 60.422c-2.377 0-4.31-1.965-4.31-4.38 0-2.136 1.512-3.918 3.505-4.303.965 2.55 2.505 4.811 4.459 6.619-.779 1.259-2.16 2.064-3.654 2.064zm15.133 0h-.018c-3.789-.005-6.87-3.14-6.87-6.992 0-3.89 3.137-6.938 7.142-6.938 3.318 0 6.17 2.758 6.493 6.28.088.962-.016 1.913-.311 2.826-.12.374-.058.784.17 1.103.227.32.59.508.978.508h.002c1.99 0 3.674 1.36 4.2 3.213H21.88zm3.118-56.66c-.208-.691.282-1.053.437-1.148.157-.096.709-.369 1.219.15L41.438 17.79c-.362.098-.716.216-1.061.351l-5.333-1.452C30.2 13.793 26.633 9.205 24.998 3.762zm-5.641 13.16c-.52-.492-.275-1.055-.187-1.216.09-.163.433-.68 1.13-.49l17.154 4.672c-1.02.865-1.876 1.924-2.51 3.121-5.744.088-11.392-2.107-15.587-6.086zM49.77 36.117h-5.666c-4.4 0-7.981-3.639-7.981-8.112 0-4.473 3.58-8.112 7.981-8.112 3.551 0 6.878 1.772 8.9 4.739l1.529 2.244c.674.99 1.03 2.15 1.03 3.353 0 3.247-2.599 5.888-5.793 5.888z"/>
        <path d="M46.42 25.667c-.318 0-.629.132-.855.36-.224.229-.353.545-.353.868 0 .323.129.64.353.869.226.228.537.36.856.36.318 0 .628-.132.854-.36.225-.229.354-.546.354-.869 0-.323-.13-.64-.354-.868-.225-.228-.536-.36-.854-.36zM10.021 35.948c-.25 0-.496-.102-.673-.279-.177-.177-.28-.423-.28-.673 0-.25.103-.497.28-.674.177-.177.423-.279.673-.279.252 0 .496.102.673.28.178.176.28.422.28.673 0 .25-.102.496-.28.673-.177.177-.421.279-.673.279z"/>
    </g>
</svg>
